# xmcd
#
# Track frame offsets: 
#        150
#        21731
#        41713
#        58950
#        75503
#        90005
#        108009
#        120373
#        137463
#        154320
#        177590
#
# Disc length: 2585 seconds
#
# Revision: 0
# Processed by: cddbd v1.5.2PL0 Copyright (c) Steve Scherf et al.
# Submitted via: ExactAudioCopy v0.99pb5
#
DISCID=860a170b
DTITLE=Kim Richey - Wreck Your Wheels
DYEAR=2010
DGENRE=Country
TTITLE0=Wreck Your Wheels
TTITLE1=Careful How You Go
TTITLE2=Leaving 49
TTITLE3=For A While
TTITLE4=Keys
TTITLE5=When The Circus Comes To Town
TTITLE6=In The Years To Come
TTITLE7=99 Floors
TTITLE8=Once In Your Life
TTITLE9=Back To You
TTITLE10=Word To The Wise
EXTD=
EXTT0=
EXTT1=
EXTT2=
EXTT3=
EXTT4=
EXTT5=
EXTT6=
EXTT7=
EXTT8=
EXTT9=
EXTT10=
PLAYORDER=
